<svg xmlns="http://www.w3.org/2000/svg" viewBox="0 0 504.124 504.124" enable-background="new 0 0 504.124 504.124"><path d="M322.954 126.031c-21.662 0-39.385 17.723-39.385 39.385v212.677h-259.938c-12.997-.001-23.631-10.635-23.631-23.631v-330.831c0-12.997 10.634-23.631 23.631-23.631h362.338c12.997 0 23.631 10.634 23.631 23.631v102.4h-86.646z" fill="#52453f"/><path d="M322.954 126.031c-21.662 0-39.385 17.723-39.385 39.385v181.169h-236.307c-8.665 0-15.754-7.089-15.754-15.754v-212.677c0-8.665 7.089-15.754 15.754-15.754h315.077c8.665 0 15.754 7.089 15.754 15.754v7.877h-55.139z" fill="#fff"/><path d="M70.892 141.785h86.646v74.831h-86.646v-74.831z" fill="#26A6D1"/><path d="M283.569 165.415v51.2h-102.4v-74.831h110.277c-4.726 6.696-7.877 14.967-7.877 23.631z" fill="#E2574C"/><path d="M204.8 35.446h157.538c8.665 0 15.754 7.089 15.754 15.754s-7.089 15.754-15.754 15.754h-157.538c-8.665 0-15.754-7.089-15.754-15.754s7.089-15.754 15.754-15.754z" fill="#DCDCDC"/><path d="M283.569 267.815h-202.831c-5.514 0-9.846-4.332-9.846-9.846s4.332-9.846 9.846-9.846h202.831v19.692zm-202.831 19.693h202.831v19.692h-202.831c-5.514 0-9.846-4.332-9.846-9.846s4.333-9.846 9.846-9.846z" fill="#E4E7E7"/><path d="M47.262 35.446c-8.665 0-15.754 7.089-15.754 15.754s7.089 15.754 15.754 15.754 15.753-7.089 15.753-15.754-7.089-15.754-15.753-15.754zm47.261 0c-8.665 0-15.754 7.089-15.754 15.754s7.089 15.754 15.754 15.754 15.754-7.089 15.754-15.754-7.089-15.754-15.754-15.754zm47.262 0c-8.665 0-15.754 7.089-15.754 15.754s7.089 15.754 15.754 15.754 15.754-7.089 15.754-15.754-7.09-15.754-15.754-15.754z" fill="#BFC3C5"/><path d="M338.708 141.785h126.031c21.662 0 39.385 17.723 39.385 39.385v283.569c0 21.662-17.723 39.385-39.385 39.385h-126.031c-21.662 0-39.385-17.723-39.385-39.385v-283.57c0-21.661 17.723-39.384 39.385-39.384z" fill="#52453f"/><path d="M326.892 196.923h149.662c4.332 0 7.877 3.545 7.877 7.877v236.308c0 4.332-3.545 7.877-7.877 7.877h-149.662c-4.332 0-7.877-3.545-7.877-7.877v-236.308c0-4.332 3.545-7.877 7.877-7.877z" fill="#fff"/><path d="M401.723 464.738c6.695 0 11.815 5.12 11.815 11.815s-5.12 11.815-11.815 11.815-11.815-5.12-11.815-11.815c0-6.301 5.12-11.815 11.815-11.815z" fill="#BFC3C5"/><path d="M350.523 228.431h102.4v55.138h-102.4v-55.138z" fill="#26A6D1"/><path d="M350.523 303.262h102.4v51.2h-102.4v-51.2z" fill="#E2574C"/><path d="M358.4 389.908h86.646c4.332 0 7.877-3.545 7.877-7.877s-3.545-7.877-7.877-7.877h-86.646c-4.332 0-7.877 3.545-7.877 7.877s3.545 7.877 7.877 7.877zm86.646 11.815h-86.646c-4.332 0-7.877 3.545-7.877 7.877s3.545 7.877 7.877 7.877h86.646c4.332 0 7.877-3.545 7.877-7.877s-3.545-7.877-7.877-7.877z" fill="#E4E7E7"/><path d="M384 165.415h39.385c3.151 0 5.908 2.757 5.908 5.908s-2.757 5.908-5.908 5.908h-39.385c-3.151 0-5.908-2.757-5.908-5.908s2.757-5.908 5.908-5.908z" fill="#BFC3C5"/></svg>