<svg xmlns="http://www.w3.org/2000/svg" viewBox="0 0 504.124 504.124" enable-background="new 0 0 504.124 504.124"><path d="M252.062.001c139.028 0 252.062 113.034 252.062 252.062s-113.035 252.06-252.062 252.06-252.062-112.639-252.062-252.06c0-139.028 113.034-252.062 252.062-252.062z" fill="#324D5B"/><path d="M252.062 43.324c115.397 0 208.738 93.342 208.738 208.738s-93.342 208.738-208.738 208.738-208.739-93.342-208.739-208.737 93.342-208.739 208.739-208.739z" fill="#DFE1E2"/><path d="M244.185 228.432c17.329 0 31.508 14.178 31.508 31.508 0 17.329-14.178 31.508-31.508 31.508s-31.508-14.178-31.508-31.508c0-17.331 14.178-31.508 31.508-31.508z" fill="#BEBFC0"/><path d="M285.932 207.163l-126.03 126.031c-3.151 3.151-3.151 8.271 0 11.422s8.271 3.151 11.422 0l126.031-126.031c3.151-3.151 3.151-8.271 0-11.422-3.152-3.151-8.272-3.151-11.423 0z" fill="#E2574C"/><path d="M259.938 232.764l-42.929 43.323c2.757 4.726 6.695 8.665 11.422 11.422l42.929-43.323c-2.757-4.728-6.695-8.665-11.422-11.422z" fill="#C04A41"/><path d="M252.062 244.186h126.031c4.332 0 7.877 3.545 7.877 7.877s-3.545 7.877-7.877 7.877h-126.031c-4.332 0-7.877-3.545-7.877-7.877 0-4.333 3.544-7.877 7.877-7.877zm-53.564-66.56l64.985 64.985c5.908 5.908 5.908 14.966 0 20.874s-14.966 5.908-20.874 0l-64.985-64.985c-5.908-5.908-5.908-14.966 0-20.874 5.514-5.909 14.967-5.909 20.874 0z" fill="#324D5B"/><path d="M252.062 220.555c17.329 0 31.508 14.178 31.508 31.508s-14.178 31.508-31.508 31.508-31.508-14.178-31.508-31.508 14.178-31.508 31.508-31.508z" fill="#E4E7E7"/><path d="M252.062 236.309c8.665 0 15.754 7.089 15.754 15.754s-7.089 15.754-15.754 15.754-15.754-7.089-15.754-15.754 7.089-15.754 15.754-15.754z" fill="#324D5B"/><path d="M252.062 43.324c-61.834 0-116.972 26.782-155.175 69.317 37.022-33.083 85.858-53.563 139.422-53.563 115.397 0 208.738 93.342 208.738 208.738 0 53.563-20.086 102.4-53.563 139.422 42.535-38.203 69.317-93.342 69.317-155.175-.001-115.398-93.343-208.739-208.739-208.739z" fill="#CFD1D2"/></svg>