<svg xmlns="http://www.w3.org/2000/svg" viewBox="0 0 504.123 504.123" enable-background="new 0 0 504.123 504.123"><path d="M393.452 477.341l-123.274-122.88 12.603-12.603c6.302-6.302 6.302-16.148 0-22.055-5.12-5.12-12.997-5.908-18.905-2.363v-301.686c.001-8.665-7.088-15.754-15.753-15.754s-15.754 7.089-15.754 15.754v301.292c-5.908-3.545-13.785-2.757-18.905 2.363-6.302 6.302-6.302 16.148 0 22.055l12.603 12.603-122.88 122.88c-6.302 6.302-6.302 16.148 0 22.055 6.302 6.302 16.148 6.302 22.055 0l107.126-106.732v72.468c0 8.665 7.089 15.754 15.754 15.754s15.754-7.089 15.754-15.754v-72.468l107.126 107.126c6.302 6.302 16.148 6.302 22.055 0 6.303-5.907 6.303-15.753.395-22.055z" fill="#324D5B"/><path d="M488.369 55.138v322.954h-472.615v-322.954h472.615z" fill="#F3F3F3"/><path d="M488.369 378.092h-472.615c-8.665 0-15.754 7.09-15.754 15.754s7.089 15.754 15.754 15.754h472.615c8.665 0 15.754-7.089 15.754-15.754s-7.089-15.754-15.754-15.754zm-472.615-322.954h472.615c8.665 0 15.754-7.089 15.754-15.754s-7.089-15.754-15.754-15.754h-472.615c-8.665.001-15.754 7.09-15.754 15.755s7.089 15.753 15.754 15.753z" fill="#F4B459"/><path d="M181.169 133.908c-52.382 0-94.523 42.142-94.523 94.523s42.142 94.523 94.523 94.523 94.523-42.142 94.523-94.523h-94.523v-94.523z" fill="#476574"/><path d="M196.923 118.154c52.382 0 94.523 42.142 94.523 94.523 0-.394-94.523 0-94.523 0s.394-94.523 0-94.523z" fill="#E2574C"/><path d="M358.4 252.062c11.028 0 19.692 8.665 19.692 19.692 0 11.027-8.665 19.692-19.692 19.692s-19.692-8.665-19.692-19.692c0-10.634 8.664-19.692 19.692-19.692z" fill="#3DB39E"/><path d="M338.708 181.169v15.754h86.646v-15.754h-86.646zm63.015 23.631h-63.015v15.754h63.015v-15.754zm-63.015 118.154h86.646v-15.754h-86.646v15.754z" fill="#D1D6D8"/><path d="M358.4 126.031c11.028 0 19.692 8.665 19.692 19.692 0 11.028-8.665 19.692-19.692 19.692s-19.692-8.665-19.692-19.692c0-10.634 8.664-19.692 19.692-19.692z" fill="#E2574C"/><path d="M15.754 409.6h472.615c8.665 0 15.754-7.089 15.754-15.754h-504.123c0 8.665 7.089 15.754 15.754 15.754zm472.615-385.969h-472.615c-8.665 0-15.754 7.089-15.754 15.754h504.123c0-8.665-7.089-15.754-15.754-15.754z" fill="#EFC75E"/></svg>