<svg xmlns="http://www.w3.org/2000/svg" viewBox="0 0 512 512" enable-background="new 0 0 512 512"><path d="M495.96 288.227v107.403h-49.846c-6.684 21.318-16.904 41.055-29.983 58.548v57.822h-84.794v-40.817l-1.705.64c-22.697 8.489-46.548 12.728-70.386 12.728-24.44 0-48.88-4.452-72.066-13.367v40.816h-84.794v-57.821c-8.264-11.048-15.386-22.998-21.192-35.663l-9.718-25.932c-5.655-13.668-8.201-28.114-8.979-41.72-1.756-31.099 5.894-61.997 21.13-89.158 4.865-8.69 10.559-18.032 16.352-25.832 25.393-34.234 59.426-58.699 96.995-72.342 57.583-20.941 123.504-16.452 179.445 17.267 2.533 1.53 4.314 2.684 5.179 3.373 9.555-13.969 25.644-23.136 43.852-23.136h10.458v91.528c5.43 11.323 9.819 23.261 13.004 35.663h47.048z" fill="#F9A395"/><path d="M331.339 471.183l-1.705.64c-22.697 8.489-46.548 12.728-70.386 12.728-24.44 0-48.88-4.452-72.066-13.367v40.816h-84.794v-57.821c-8.264-11.048-15.386-22.998-21.192-35.663l-9.718-25.932c-5.655-13.668-8.201-28.114-8.978-41.72-1.756-31.099 5.894-61.997 21.13-89.158 4.865-8.69 10.559-18.032 16.352-25.832 25.393-34.234 59.426-58.699 96.995-72.342 0 0-99.975 101.284-81.421 183.332 28.212 124.77 125.596 124.319 215.783 124.319z" fill="#E59188"/><path d="M214.71 199.16l-5.955-17.843c7.479-2.497 15.199-4.547 22.947-6.097 28.253-5.647 57.817-4.725 85.496 2.666l-4.853 18.173c-24.907-6.651-51.517-7.479-76.956-2.394-6.983 1.397-13.94 3.245-20.679 5.495z" fill="#344F5E"/><path d="M57.983 331.544c-11.174 0-20.807-2.913-27.877-8.434-9.333-7.287-14.066-18.486-14.066-33.284 0-5.194 4.211-9.405 9.405-9.405s9.405 4.211 9.405 9.405c0 8.832 2.235 14.87 6.832 18.46 7.938 6.195 22.252 4.458 26.64 3.361 5.041-1.261 10.145 1.803 11.405 6.843 1.26 5.04-1.803 10.146-6.843 11.405-.66.165-6.672 1.613-14.589 1.65l-.312-.001z" fill="#E59188"/><path d="M407.961 287.336c0 2.859-.665 5.555-1.856 7.95-2.922 5.969-9.054 10.069-16.151 10.069-9.944 0-18.007-8.063-18.007-18.02 0-9.568 7.461-17.393 16.891-17.97.376-.025.74-.038 1.116-.038 9.944.002 18.007 8.065 18.007 18.009z" fill="#344F5E"/><path d="M407.961 287.336c0 2.859-.665 5.555-1.856 7.95-.364.025-.74.038-1.104.038-9.944 0-18.007-8.063-18.007-18.02 0-2.847.665-5.543 1.843-7.938.376-.025.74-.038 1.116-.038 9.945.001 18.008 8.064 18.008 18.008z" fill="#415E72"/><path d="M319.701 61.194c0 33.807-27.399 61.194-61.194 61.194-12.176 0-23.525-3.549-33.055-9.681-16.929-10.885-28.139-29.882-28.139-51.514-.001-33.794 27.399-61.193 61.194-61.193 13.192 0 25.406 4.176 35.4 11.261 15.612 11.097 25.794 29.33 25.794 49.933z" fill="#FCD577"/><path d="M293.907 61.194c0 19.557-15.85 35.4-35.4 35.4-7.044 0-13.608-2.053-19.122-5.6-9.794-6.296-16.278-17.286-16.278-29.8 0-19.55 15.85-35.4 35.4-35.4 7.632 0 14.697 2.415 20.479 6.514 9.031 6.42 14.921 16.968 14.921 28.886z" fill="#EAC36E"/><path d="M319.706 61.193c0 33.807-27.399 61.194-61.194 61.194-12.176 0-23.525-3.549-33.055-9.681l14.433-21.393 39.576-58.649 14.446-21.405c15.612 11.098 25.794 29.331 25.794 49.934z" fill="#FCECC8"/><path d="M293.912 61.193c0 19.562-15.85 35.4-35.4 35.4-6.834 0-13.217-1.931-18.622-5.279l39.576-58.649c8.765 6.445 14.446 16.828 14.446 28.528z" fill="#FCD577"/></svg>